<svg width="69" height="69" viewBox="0 0 69 69" fill="none" xmlns="http://www.w3.org/2000/svg">
<g clip-path="url(#clip0_359_50)">
<path d="M67.9112 24.2537C67.3573 24.5677 65.9301 25.5313 65.4194 27.3911C65.3964 27.4706 65.3762 27.5515 65.3574 27.6337C65.1026 28.8116 65.2755 30.0418 65.8452 31.1039C65.8991 31.209 65.9584 31.3141 66.0218 31.4165C66.0339 31.4381 66.046 31.4583 66.0581 31.4772C66.0918 31.5324 66.1282 31.5877 66.1646 31.6416C66.182 31.6674 66.1911 31.698 66.1907 31.7291C66.1904 31.7602 66.1805 31.7905 66.1626 31.816C66.1446 31.8414 66.1193 31.8608 66.0901 31.8715C66.0608 31.8822 66.029 31.8838 65.9988 31.8761C65.2792 31.6942 63.8709 31.4974 62.4505 32.24C60.8265 33.089 59.8037 34.845 59.7808 36.7789C59.7809 36.8009 59.7764 36.8227 59.7674 36.8429C59.7585 36.863 59.7454 36.881 59.7289 36.8957C59.7125 36.9104 59.6931 36.9214 59.672 36.9279C59.651 36.9345 59.6288 36.9365 59.6069 36.9338C57.3738 36.632 54.8861 36.0889 52.5385 35.6778C52.3323 35.6428 52.1261 35.6077 51.9226 35.5741H51.9212C51.552 35.5121 51.1868 35.4555 50.8283 35.4043C50.7029 35.3854 50.579 35.3679 50.4563 35.3517C50.4248 35.348 50.3952 35.3342 50.3722 35.3123C50.3491 35.2905 50.3337 35.2617 50.3283 35.2304C50.3175 35.1738 50.3081 35.1172 50.296 35.0606C50.2852 34.9986 50.273 34.9366 50.2609 34.8733C50.2326 34.7183 50.2003 34.5606 50.1679 34.4016C49.6275 31.7292 48.7947 28.7765 48.3149 26.1634C48.3113 26.1418 48.3122 26.1196 48.3178 26.0984C48.3233 26.0772 48.3333 26.0574 48.3471 26.0403C48.3608 26.0233 48.378 26.0093 48.3976 25.9994C48.4171 25.9895 48.4386 25.9838 48.4604 25.9828C50.393 25.8682 52.0978 24.7632 52.87 23.1015C53.5438 21.6474 53.281 20.2512 53.064 19.5396C53.0551 19.5099 53.0553 19.4781 53.0647 19.4485C53.0741 19.4189 53.0922 19.3929 53.1167 19.3738C53.1412 19.3547 53.1709 19.3434 53.2019 19.3415C53.2329 19.3396 53.2638 19.3471 53.2904 19.3631C53.9804 19.7822 55.4925 20.483 57.3334 19.9803C59.3293 19.4345 60.2875 17.8618 60.588 17.2702C60.5989 17.2481 60.615 17.229 60.6348 17.2144C60.6547 17.1999 60.6778 17.1904 60.7022 17.1867C60.7265 17.183 60.7514 17.1852 60.7747 17.1932C60.798 17.2011 60.819 17.2146 60.836 17.2325C61.3615 17.7754 62.0014 18.1943 62.7092 18.4588C63.2376 18.6519 63.7978 18.7429 64.3601 18.727C65.1745 18.6984 65.967 18.4558 66.6579 18.0235C66.6864 18.0051 66.7204 17.9969 66.7543 18.0001C66.7881 18.0034 66.8199 18.0179 66.8445 18.0414C66.8691 18.0649 66.885 18.096 66.8898 18.1297C66.8946 18.1633 66.8879 18.1976 66.8708 18.227C66.4718 18.9372 66.2668 19.7399 66.2765 20.5544C66.3088 22.4007 67.4651 23.592 67.9368 24.0058C67.9553 24.0218 67.9697 24.042 67.9787 24.0648C67.9877 24.0875 67.9911 24.1121 67.9886 24.1364C67.9861 24.1608 67.9778 24.1842 67.9643 24.2046C67.9508 24.225 67.9326 24.2419 67.9112 24.2537Z" fill="#46CC8D"/>
<path d="M50.2609 34.8733C50.831 35.124 51.6315 35.4744 51.9212 35.5741C51.552 35.5121 51.1867 35.4555 50.8283 35.4043C50.6423 35.2884 50.4644 35.1725 50.2959 35.0607C50.0614 34.9043 49.8445 34.7539 49.645 34.6092C49.6693 34.6132 49.9253 34.7265 50.2609 34.8733ZM51.9226 35.5741C52.1261 35.6078 52.3322 35.6429 52.5384 35.6779C52.3291 35.6749 52.1214 35.6399 51.9226 35.5741ZM67.9112 24.2538C67.3573 24.5678 65.9301 25.5314 65.4193 27.3912C65.392 27.4702 65.3713 27.5513 65.3573 27.6337C65.1386 28.8128 65.3098 30.031 65.8452 31.104C65.8991 31.2091 65.9584 31.3142 66.0217 31.4166C66.0325 31.4368 66.0446 31.457 66.0581 31.4773C66.0918 31.5325 66.1282 31.5878 66.1646 31.6417C66.182 31.6675 66.1911 31.698 66.1907 31.7292C66.1903 31.7603 66.1805 31.7906 66.1625 31.816C66.1446 31.8415 66.1193 31.8608 66.09 31.8716C66.0608 31.8823 66.029 31.8839 65.9988 31.8762C65.2792 31.6942 63.8709 31.4975 62.4504 32.24C60.8265 33.089 59.8037 34.845 59.7807 36.7789C59.7809 36.801 59.7764 36.8228 59.7674 36.8429C59.7585 36.8631 59.7453 36.8811 59.7289 36.8958C59.7124 36.9104 59.693 36.9214 59.672 36.928C59.651 36.9346 59.6288 36.9366 59.6069 36.9339C57.3738 36.632 54.8861 36.0889 52.5384 35.6779C55.1259 35.7318 58.6972 31.5056 58.9438 31.2077C62.4882 26.9451 63.4275 21.9116 63.6741 18.6934C63.9015 18.7226 64.1309 18.7338 64.3601 18.7271C65.1745 18.6985 65.967 18.4559 66.6578 18.0236C66.6864 18.0052 66.7204 17.997 66.7542 18.0002C66.7881 18.0034 66.8199 18.018 66.8444 18.0415C66.869 18.065 66.885 18.0961 66.8898 18.1297C66.8945 18.1634 66.8878 18.1977 66.8708 18.2271C66.4718 18.9373 66.2668 19.74 66.2764 20.5545C66.3088 22.4008 67.4651 23.5921 67.9368 24.0058C67.9553 24.0218 67.9697 24.0421 67.9787 24.0648C67.9877 24.0876 67.9911 24.1122 67.9886 24.1365C67.9861 24.1609 67.9777 24.1842 67.9643 24.2047C67.9508 24.2251 67.9326 24.2419 67.9112 24.2538Z" fill="#00C27A"/>
<path d="M18.6719 35.2299C19.1945 32.3495 20.1556 29.0508 20.6849 26.1641C20.6886 26.1425 20.6877 26.1202 20.6821 26.099C20.6766 26.0777 20.6666 26.0578 20.6528 26.0407C20.639 26.0236 20.6217 26.0096 20.602 25.9997C20.5824 25.9898 20.5609 25.9842 20.5389 25.9833C18.6074 25.8687 16.902 24.7636 16.1305 23.1013C15.4557 21.6479 15.719 20.2508 15.9357 19.5399C15.9447 19.5101 15.9445 19.4783 15.9351 19.4486C15.9257 19.419 15.9075 19.3929 15.883 19.3737C15.8585 19.3546 15.8287 19.3433 15.7977 19.3414C15.7666 19.3394 15.7357 19.347 15.709 19.3629C15.0201 19.7818 13.507 20.4828 11.6667 19.9801C9.67141 19.4349 8.71187 17.8624 8.41175 17.2697C8.40083 17.2478 8.3848 17.2288 8.36501 17.2144C8.34522 17.2 8.32224 17.1905 8.29803 17.1868C8.27381 17.1831 8.24906 17.1853 8.22586 17.1931C8.20266 17.201 8.18169 17.2143 8.16473 17.232C7.7297 17.684 6.4846 18.7829 4.63966 18.7272C3.82544 18.6987 3.03316 18.4558 2.34285 18.0231C2.31413 18.0047 2.28007 17.9965 2.24612 17.9997C2.21218 18.003 2.18031 18.0176 2.15562 18.0411C2.13094 18.0646 2.11487 18.0958 2.10999 18.1295C2.10511 18.1633 2.1117 18.1977 2.12871 18.2272C2.52829 18.9372 2.73344 19.7401 2.72343 20.5548C2.69176 22.4004 1.5352 23.592 1.06312 24.0052C1.04464 24.0213 1.03032 24.0416 1.02134 24.0644C1.01237 24.0872 1.00902 24.1119 1.01157 24.1363C1.01412 24.1606 1.0225 24.184 1.036 24.2045C1.0495 24.225 1.06772 24.2419 1.08913 24.2538C1.667 24.5816 3.19228 25.6144 3.6424 27.6333C4.05747 29.4951 3.28581 30.9736 2.83488 31.6418C2.81764 31.6677 2.80864 31.6983 2.80908 31.7294C2.80952 31.7605 2.81937 31.7908 2.83734 31.8162C2.85531 31.8416 2.88055 31.861 2.90975 31.8718C2.93894 31.8826 2.97073 31.8843 3.00091 31.8767C3.72123 31.6938 5.12926 31.4969 6.54916 32.2396C8.17308 33.0889 9.19622 34.8447 9.21927 36.7796C9.21917 36.8016 9.22377 36.8234 9.23275 36.8434C9.24172 36.8635 9.25488 36.8814 9.27133 36.896C9.28778 36.9106 9.30715 36.9215 9.32815 36.928C9.34915 36.9346 9.3713 36.9365 9.39311 36.9338C12.3015 36.5416 15.6419 35.7377 18.544 35.352C18.5756 35.3481 18.605 35.334 18.6281 35.3121C18.6511 35.2901 18.6665 35.2613 18.672 35.2299H18.6719ZM45.8243 14.4348C45.0036 14.8971 43.54 15.9482 42.8878 17.8713C42.1412 20.0694 42.7395 22.5747 44.4093 24.3684C44.4286 24.3885 44.4433 24.4125 44.4527 24.4388C44.462 24.465 44.4656 24.493 44.4633 24.5207C44.461 24.5485 44.4529 24.5755 44.4394 24.5999C44.4259 24.6243 44.4073 24.6455 44.385 24.6622C41.3757 26.8454 37.6103 29.0299 34.6118 31.2131C34.5796 31.2374 34.5403 31.2505 34.5 31.2505C34.4596 31.2505 34.4203 31.2374 34.3881 31.2131C34.0444 30.9625 33.6909 30.7118 33.3275 30.4611C30.5351 28.5286 27.2792 26.5947 24.6149 24.6622C24.5926 24.6455 24.574 24.6243 24.5605 24.5999C24.547 24.5755 24.5389 24.5485 24.5366 24.5207C24.5343 24.493 24.5379 24.465 24.5472 24.4388C24.5566 24.4125 24.5713 24.3885 24.5906 24.3684C26.2604 22.5747 26.8587 20.0694 26.1121 17.8713C25.4599 15.9482 23.9963 14.8971 23.1756 14.4348C23.1414 14.4153 23.1138 14.386 23.0966 14.3506C23.0794 14.3151 23.0733 14.2753 23.0791 14.2364C23.085 14.1975 23.1025 14.1612 23.1293 14.1324C23.1561 14.1036 23.1911 14.0836 23.2295 14.075C24.2268 13.8567 26.228 13.1761 27.4746 11.1061C28.8277 8.8609 28.3317 6.58067 28.0891 5.77477C28.0798 5.74506 28.0778 5.71353 28.0833 5.68289C28.0888 5.65224 28.1017 5.62337 28.1207 5.59875C28.1398 5.57413 28.1645 5.55448 28.1928 5.54149C28.2211 5.52849 28.2521 5.52252 28.2832 5.5241C29.077 5.55779 31.1793 5.47693 32.8221 3.81123C33.5445 3.07382 34.0588 2.15829 34.3126 1.1577C34.323 1.11585 34.3471 1.07868 34.381 1.05211C34.415 1.02554 34.4568 1.01111 34.5 1.01111C34.5431 1.01111 34.5849 1.02554 34.6189 1.05211C34.6528 1.07868 34.6769 1.11585 34.6873 1.1577C34.9411 2.15829 35.4554 3.07382 36.1778 3.81123C36.9385 4.57843 37.9019 5.11318 38.9553 5.35295C39.5319 5.48972 40.1245 5.5473 40.7167 5.5241C40.7478 5.52252 40.7788 5.52849 40.8071 5.54149C40.8354 5.55448 40.8601 5.57413 40.8792 5.59875C40.8982 5.62337 40.9111 5.65224 40.9166 5.68289C40.9221 5.71353 40.9201 5.74506 40.9108 5.77477C40.6682 6.58067 40.1722 8.8609 41.5253 11.1061C42.7719 13.1761 44.7731 13.8567 45.7704 14.075C45.8088 14.0836 45.8438 14.1036 45.8706 14.1324C45.8974 14.1612 45.9149 14.1975 45.9207 14.2364C45.9266 14.2753 45.9205 14.3151 45.9033 14.3506C45.8861 14.386 45.8585 14.4153 45.8243 14.4348Z" fill="#46CC8D"/>
<path d="M45.8245 14.4348C45.0037 14.897 43.5402 15.9482 42.8879 17.8713C42.1413 20.0693 42.7397 22.5746 44.4094 24.3683C44.4287 24.3885 44.4435 24.4124 44.4528 24.4387C44.4621 24.465 44.4658 24.4929 44.4635 24.5207C44.4612 24.5485 44.453 24.5754 44.4395 24.5998C44.426 24.6242 44.4075 24.6454 44.3852 24.6621C41.3758 26.8453 37.6105 29.0299 34.612 31.2131C34.5797 31.2374 34.5405 31.2505 34.5001 31.2505C34.4597 31.2505 34.4205 31.2374 34.3882 31.2131C34.0446 30.9624 33.6911 30.7118 33.3276 30.4611C36.2807 26.8581 38.3147 22.5918 39.2546 18.029C40.103 13.8343 40.0008 9.50286 38.9554 5.35291C39.5321 5.48968 40.1247 5.54726 40.7168 5.52406C40.7479 5.52248 40.779 5.52844 40.8072 5.54144C40.8355 5.55444 40.8603 5.57408 40.8793 5.59871C40.8984 5.62333 40.9112 5.65219 40.9167 5.68284C40.9222 5.71349 40.9202 5.74501 40.9109 5.77472C40.6683 6.58062 40.1724 8.86085 41.5254 11.1061C42.772 13.1761 44.7733 13.8566 45.7705 14.0749C45.809 14.0835 45.8439 14.1035 45.8707 14.1323C45.8976 14.1612 45.9151 14.1974 45.9209 14.2364C45.9267 14.2753 45.9206 14.3151 45.9034 14.3505C45.8862 14.3859 45.8587 14.4153 45.8245 14.4348Z" fill="#00C27A"/>
<path d="M15.6517 66.5398C19.1571 66.5398 21.9988 63.6981 21.9988 60.1928C21.9988 56.6874 19.1571 53.8457 15.6517 53.8457C12.1464 53.8457 9.30469 56.6874 9.30469 60.1928C9.30469 63.6981 12.1464 66.5398 15.6517 66.5398Z" fill="#FAC600"/>
<path d="M18.7101 54.631C18.1728 54.3354 17.5953 54.1193 16.9959 53.9894C17.9874 54.949 18.6392 56.2055 18.8526 57.5687C19.066 58.932 18.8293 60.3276 18.1785 61.5442C17.5277 62.7609 16.4981 63.7324 15.2457 64.3115C13.9933 64.8906 12.5863 65.0459 11.2378 64.7538C11.8879 65.383 12.665 65.8659 13.517 66.1702C14.3689 66.4745 15.2761 66.5932 16.1777 66.5182C17.0793 66.4433 17.9545 66.1765 18.7445 65.7357C19.5346 65.2949 20.2213 64.6903 20.7586 63.9624C21.2959 63.2345 21.6713 62.4002 21.8598 61.5154C22.0483 60.6305 22.0455 59.7156 21.8515 58.8319C21.6576 57.9483 21.2769 57.1163 20.7351 56.3918C20.1933 55.6672 19.5029 55.0669 18.7101 54.631Z" fill="#E8B800"/>
<path d="M34.5916 42.2921C34.5916 42.5697 34.5795 42.8487 34.5525 43.1277C34.539 43.2746 34.5215 43.4228 34.4999 43.5697C34.3552 44.5867 34.038 45.5716 33.562 46.482C31.2386 50.9457 30.3822 56.0284 31.1146 61.007L31.6429 64.6053L30.6241 66.4596L2.34082 50.9063L3.35965 49.052L6.68162 47.5722C10.9446 45.6723 14.5584 42.5663 17.0774 38.6373C17.2702 38.3381 17.4561 38.0335 17.6354 37.7236H17.6367C18.8282 35.6691 20.7765 34.1625 23.0647 33.5263C25.3529 32.8901 27.7992 33.1748 29.8802 34.3194C30.0069 34.3895 30.1322 34.4622 30.2548 34.5377C30.8827 34.921 31.4612 35.3799 31.9771 35.9042C33.2532 37.2014 34.1109 38.8515 34.4393 40.6412C34.4425 40.6527 34.4443 40.6644 34.4447 40.6763C34.4676 40.7881 34.4851 40.9013 34.4999 41.0145C34.5609 41.4377 34.5915 41.8646 34.5916 42.2921Z" fill="#FED402"/>
<path d="M34.4999 41.0145C34.4851 40.9013 34.4676 40.7881 34.4447 40.6763C34.4443 40.6644 34.4425 40.6527 34.4393 40.6412C34.1109 38.8515 33.2532 37.2014 31.9771 35.9042C31.538 35.4601 31.0539 35.063 30.5324 34.7192C30.5269 34.8269 30.5193 34.9344 30.5095 35.0417C30.4961 35.1886 30.4785 35.3369 30.457 35.4838C30.3122 36.5008 29.995 37.4857 29.519 38.396C28.9192 39.5484 28.4143 40.7478 28.0092 41.9822C27.7633 42.7315 27.1843 44.0344 26.817 49.4387C26.7797 49.9867 26.7448 50.5714 26.7122 51.1929C26.6735 51.9416 26.4451 52.6682 26.0487 53.3045C25.6522 53.9409 25.1006 54.466 24.4456 54.8308C23.7906 55.1956 23.0536 55.388 22.3039 55.39C21.5542 55.392 20.8162 55.2036 20.1593 54.8423L6.8207 47.5071C6.77407 47.5283 6.72838 47.5513 6.68162 47.5722L3.20103 49.1251L2.34082 50.9063L30.6241 66.4596L31.6953 64.8139L31.1146 61.007C30.3822 56.0284 31.2386 50.9457 33.562 46.482C34.038 45.5716 34.3552 44.5867 34.4999 43.5697C34.5215 43.4228 34.539 43.2746 34.5525 43.1277C34.5795 42.8487 34.5916 42.5697 34.5916 42.2921C34.5915 41.8646 34.5609 41.4377 34.4999 41.0145Z" fill="#FAC600"/>
<path d="M31.1027 64.3082L3.90013 49.3498C2.96991 48.8383 1.80115 49.1777 1.28964 50.1079L1.24886 50.182C0.737338 51.1123 1.07676 52.281 2.00698 52.7925L29.2095 67.751C30.1398 68.2625 31.3085 67.9231 31.82 66.9929L31.8608 66.9187C32.3723 65.9885 32.0329 64.8197 31.1027 64.3082Z" fill="#FED402"/>
<path d="M53.3483 66.5398C56.8537 66.5398 59.6953 63.6981 59.6953 60.1928C59.6953 56.6874 56.8537 53.8457 53.3483 53.8457C49.8429 53.8457 47.0012 56.6874 47.0012 60.1928C47.0012 63.6981 49.8429 66.5398 53.3483 66.5398Z" fill="#FAC600"/>
<path d="M58.9098 57.1344C58.1403 55.7355 56.8717 54.678 55.3572 54.1729C53.8426 53.6678 52.1932 53.7521 50.738 54.4091C52.1283 54.4538 53.4655 54.954 54.5437 55.8328C55.622 56.7117 56.3817 57.9204 56.706 59.2731C57.0302 60.6258 56.9012 62.0475 56.3386 63.3197C55.776 64.5919 54.811 65.644 53.5921 66.3143C53.4456 66.3941 53.2961 66.4682 53.1439 66.5364C54.2636 66.5725 55.3728 66.3116 56.3591 65.7802C57.3453 65.2488 58.1733 64.4659 58.7589 63.5109C59.3446 62.5559 59.6671 61.463 59.6936 60.343C59.7201 59.2231 59.4497 58.116 58.9098 57.1344Z" fill="#E8B800"/>
<path d="M66.6592 50.9063L38.3759 66.4596L37.35 64.7585L37.8854 61.007C38.6178 56.0284 37.7614 50.9457 35.4381 46.482C34.9621 45.5716 34.6449 44.5867 34.5001 43.5697C34.4785 43.4228 34.461 43.2746 34.4475 43.1277C34.4206 42.8487 34.4084 42.5697 34.4084 42.2921C34.4085 41.8646 34.4392 41.4377 34.5001 41.0145C34.5149 40.9013 34.5324 40.7881 34.5553 40.6763C34.5557 40.6644 34.5575 40.6527 34.5607 40.6412C34.8891 38.8515 35.7468 37.2014 37.0229 35.9042C37.5389 35.3799 38.1173 34.921 38.7452 34.5377C38.8678 34.4622 38.9932 34.3895 39.1199 34.3194C41.2008 33.1748 43.6471 32.8901 45.9353 33.5263C48.2235 34.1625 50.1718 35.6691 51.3633 37.7236H51.3647C51.5439 38.0335 51.7299 38.3381 51.9226 38.6373C54.4416 42.5663 58.0554 45.6723 62.3184 47.5722L65.6404 49.052L66.6592 50.9063Z" fill="#FED402"/>
<path d="M37.0227 34.9069V39.8933L34.5605 40.6412L34.4999 40.6601L34.4446 40.6762L30.4178 41.9013L19.6865 45.1639C19.3844 45.2557 19.065 45.2755 18.7539 45.2216C18.4429 45.1678 18.1487 45.0418 17.8951 44.8538C17.6414 44.6658 17.4354 44.421 17.2934 44.1391C17.1514 43.8571 17.0774 43.5458 17.0774 43.2301V38.6372C17.2701 38.3381 17.4561 38.0335 17.6353 37.7235H17.6367C18.8282 35.669 20.7764 34.1625 23.0646 33.5263C25.3528 32.8901 27.7992 33.1747 29.8801 34.3194C30.0068 34.3894 30.1321 34.4622 30.2548 34.5377V33.694C30.2544 33.4207 30.3099 33.1501 30.4178 32.8989L34.4999 34.1401L37.0227 34.9069Z" fill="#FAC600"/>
<path d="M65.7896 49.1265L62.3184 47.5722C58.0554 45.6723 54.4416 42.5663 51.9226 38.6372C51.7299 38.3381 51.5439 38.0335 51.3647 37.7235H51.3633C51.287 37.5916 51.2077 37.4625 51.1256 37.3361C51.098 37.2934 51.0685 37.2527 51.0402 37.2108C50.9846 37.128 50.9297 37.045 50.8718 36.9647C50.8361 36.9151 50.7984 36.8676 50.7619 36.8189C50.7092 36.7488 50.6572 36.6778 50.6027 36.6094C50.5619 36.5582 50.519 36.5092 50.4772 36.459C50.4247 36.396 50.3728 36.3322 50.3189 36.2708C50.2739 36.2197 50.2273 36.1709 50.1813 36.121C50.1281 36.0634 50.0755 36.0049 50.0211 35.9487C49.9724 35.8985 49.9219 35.8504 49.8721 35.8015C49.8184 35.7485 49.7653 35.695 49.7104 35.6437C49.6579 35.5946 49.6041 35.5479 49.5507 35.5003C49.4964 35.4518 49.4425 35.4026 49.3871 35.3556C49.3313 35.3081 49.2742 35.263 49.2175 35.217C49.1626 35.1726 49.108 35.1277 49.0522 35.0847C48.9932 35.0391 48.933 34.9957 48.873 34.9518C48.8176 34.9114 48.7625 34.8704 48.7064 34.8312C48.644 34.7877 48.5806 34.7463 48.5173 34.7045C48.462 34.6679 48.4068 34.6308 48.3506 34.5955C48.2849 34.554 48.218 34.5145 48.1512 34.4747C48.0961 34.4421 48.0412 34.409 47.9856 34.3776C47.9163 34.3388 47.8466 34.3008 47.7764 34.2638C47.7216 34.2347 47.667 34.2053 47.6116 34.1773C47.539 34.1409 47.466 34.1055 47.3925 34.0711C47.3386 34.0455 47.2846 34.0199 47.2302 33.9955C47.1542 33.9617 47.0777 33.9289 47.0008 33.8971C46.9477 33.875 46.8948 33.8528 46.8413 33.8318C46.7622 33.8005 46.6824 33.771 46.6025 33.742C46.5504 33.7232 46.4984 33.7043 46.4461 33.6864C46.3636 33.6583 46.2807 33.6314 46.1974 33.6058C46.1468 33.5899 46.0961 33.5745 46.0452 33.5595C45.9594 33.5347 45.8732 33.511 45.7867 33.4887C45.7378 33.4759 45.6887 33.4635 45.6396 33.4515C45.5505 33.4299 45.4611 33.4097 45.3714 33.391C45.3241 33.3811 45.2768 33.3715 45.2293 33.3621C45.1372 33.3441 45.0447 33.3277 44.952 33.3128C44.9066 33.3054 44.8612 33.2984 44.8159 33.2918C44.7206 33.2778 44.625 33.2653 44.5292 33.2543C44.486 33.2494 44.4427 33.2447 44.3993 33.2404C44.301 33.2305 44.2027 33.2223 44.1042 33.2156C44.0629 33.2129 44.022 33.2105 43.9807 33.2083C43.8796 33.203 43.7783 33.1991 43.6768 33.1969C43.6382 33.1961 43.5996 33.1959 43.5609 33.1955C43.4567 33.1946 43.3525 33.1955 43.2483 33.1982C43.2124 33.1993 43.1765 33.2009 43.1405 33.2023C43.0336 33.2063 42.9267 33.2121 42.8197 33.2201C42.7864 33.2225 42.7532 33.2256 42.7199 33.2286C42.6103 33.238 42.5009 33.2488 42.3914 33.2623C42.361 33.2659 42.3305 33.2703 42.3001 33.2744C42.1879 33.2892 42.0761 33.3058 41.9642 33.3249C41.9367 33.3296 41.9094 33.335 41.8819 33.34C41.7672 33.3608 41.6528 33.3831 41.5384 33.4085C41.5144 33.4139 41.4904 33.4198 41.4664 33.4253C41.3492 33.4523 41.2319 33.4811 41.1152 33.5129C41.0949 33.5184 41.0745 33.5248 41.0542 33.5304C40.9342 33.5641 40.8143 33.5996 40.6951 33.6384C40.6787 33.6438 40.6623 33.6498 40.646 33.6552C40.5231 33.6959 40.4007 33.7388 40.2789 33.7851C40.2669 33.7897 40.255 33.7948 40.2429 33.7994C40.117 33.8479 39.9917 33.8988 39.8672 33.9533C39.8604 33.9562 39.8537 33.9595 39.8471 33.9624C39.7174 34.0195 39.5885 34.0797 39.4604 34.1429C39.3463 34.1997 39.2325 34.2575 39.1199 34.3194C38.9932 34.3894 38.8679 34.4622 38.7452 34.5377V33.694C38.7456 33.4207 38.6901 33.1501 38.5822 32.8989L34.5001 34.1401L31.9773 34.9069V39.8933L34.4395 40.6412L34.5001 40.6601L34.5554 40.6762L38.5822 41.9013L47.2753 44.5443C48.621 44.9532 49.8402 45.6985 50.8178 46.7096L50.8667 46.76C51.3346 47.2439 51.6914 47.8239 51.9123 48.4597C52.1333 49.0954 52.2132 49.7717 52.1463 50.4415C52.0795 51.1112 51.8675 51.7584 51.5253 52.3379C51.183 52.9175 50.7186 53.4155 50.1643 53.7974L37.6817 62.3948L37.3571 64.6052L38.376 66.4596L66.6592 50.9063L65.7896 49.1265Z" fill="#FAC600"/>
<path d="M38.7451 33.6941V41.1062C38.745 41.6423 38.532 42.1564 38.1529 42.5355C37.7738 42.9146 37.2597 43.1276 36.7236 43.1277H32.2764C31.7403 43.1276 31.2262 42.9146 30.8471 42.5355C30.468 42.1564 30.255 41.6423 30.2549 41.1062V33.6941C30.255 33.158 30.468 32.6439 30.8471 32.2648C31.2262 31.8857 31.7403 31.6727 32.2764 31.6726H36.7236C37.2597 31.6727 37.7738 31.8857 38.1529 32.2648C38.532 32.6439 38.745 33.158 38.7451 33.6941Z" fill="#FAC600"/>
<path d="M44.1023 36.3889H38.7451C38.4771 36.3889 38.22 36.2824 38.0304 36.0929C37.8409 35.9033 37.7344 35.6462 37.7344 35.3782C37.7344 35.1101 37.8409 34.853 38.0304 34.6635C38.22 34.4739 38.4771 34.3674 38.7451 34.3674H44.1023C44.3704 34.3674 44.6275 34.4739 44.817 34.6635C45.0066 34.853 45.1131 35.1101 45.1131 35.3782C45.1131 35.6462 45.0066 35.9033 44.817 36.0929C44.6275 36.2824 44.3704 36.3889 44.1023 36.3889ZM30.2549 36.3889H24.8977C24.6296 36.3889 24.3726 36.2824 24.183 36.0929C23.9935 35.9033 23.887 35.6462 23.887 35.3782C23.887 35.1101 23.9935 34.853 24.183 34.6635C24.3726 34.4739 24.6296 34.3674 24.8977 34.3674H30.2549C30.523 34.3674 30.7801 34.4739 30.9696 34.6635C31.1592 34.853 31.2657 35.1101 31.2657 35.3782C31.2657 35.6462 31.1592 35.9033 30.9696 36.0929C30.7801 36.2824 30.523 36.3889 30.2549 36.3889Z" fill="#AC2538"/>
<path d="M37.0226 37.8713L19.6866 43.1422C19.3845 43.2341 19.0651 43.2539 18.754 43.2001C18.4429 43.1462 18.1487 43.0203 17.895 42.8323C17.6413 42.6443 17.4352 42.3994 17.2932 42.1175C17.1512 41.8355 17.0772 41.5241 17.0771 41.2084V29.548C17.0772 29.2323 17.1511 28.9209 17.2932 28.6389C17.4352 28.3569 17.6413 28.1121 17.895 27.924C18.1486 27.736 18.4428 27.6101 18.754 27.5562C19.0651 27.5024 19.3845 27.5222 19.6866 27.614L37.0225 32.885L37.0226 37.8713Z" fill="#E53950"/>
<path d="M37.0227 32.8855V37.8718L36.7235 37.9621L28.7184 40.396L19.6865 43.1425C19.3844 43.2343 19.065 43.254 18.7539 43.2002C18.4429 43.1463 18.1487 43.0204 17.8951 42.8324C17.6414 42.6444 17.4354 42.3996 17.2934 42.1176C17.1514 41.8356 17.0774 41.5243 17.0774 41.2086V29.5473C17.0774 29.2316 17.1514 28.9203 17.2934 28.6383C17.4354 28.3564 17.6414 28.1116 17.8951 27.9236C18.1487 27.7356 18.4429 27.6096 18.7539 27.5557C19.065 27.5019 19.3844 27.5217 19.6865 27.6134L28.7184 30.36L36.7235 32.7938L37.0227 32.8855Z" fill="#E53950"/>
<path d="M31.9775 37.8713L49.3134 43.1422C49.6155 43.2341 49.9349 43.2539 50.246 43.2001C50.5571 43.1462 50.8513 43.0203 51.105 42.8323C51.3587 42.6443 51.5648 42.3994 51.7068 42.1175C51.8488 41.8355 51.9228 41.5241 51.9229 41.2084V29.548C51.9228 29.2323 51.8489 28.9209 51.7068 28.6389C51.5648 28.3569 51.3587 28.1121 51.105 27.924C50.8514 27.736 50.5572 27.6101 50.246 27.5562C49.9349 27.5024 49.6155 27.5222 49.3134 27.614L31.9775 32.885V37.8713Z" fill="#E53950"/>
<path d="M49.3134 27.614L47.8799 28.0498V32.855C47.8799 33.6698 47.689 34.4732 47.3226 35.2009C46.9561 35.9287 46.4243 36.5604 45.7697 37.0455C45.1151 37.5307 44.356 37.8557 43.5532 37.9946C42.7503 38.1335 41.9261 38.0824 41.1466 37.8454L31.9775 35.0577V37.8713L49.3134 43.1422C49.6155 43.2341 49.9349 43.2539 50.246 43.2001C50.5571 43.1462 50.8513 43.0203 51.105 42.8323C51.3587 42.6443 51.5648 42.3994 51.7068 42.1175C51.8488 41.8355 51.9228 41.5241 51.9229 41.2084V29.548C51.9228 29.2323 51.8489 28.9209 51.7068 28.6389C51.5648 28.3569 51.3587 28.1121 51.105 27.924C50.8514 27.736 50.5572 27.6101 50.246 27.5562C49.9349 27.5024 49.6155 27.5222 49.3134 27.614Z" fill="#CA2E43"/>
<path d="M36.7236 32.7939V37.9621L28.7186 40.396C28.4048 40.0312 28.2326 39.5658 28.2334 39.0847V31.6726C28.2326 31.1911 28.4047 30.7252 28.7186 30.36L36.7236 32.7939Z" fill="#CA2E43"/>
<path d="M36.7236 29.6506H32.2764C31.1599 29.6506 30.2549 30.5557 30.2549 31.6721V39.0842C30.2549 40.2007 31.1599 41.1057 32.2764 41.1057H36.7236C37.8401 41.1057 38.7451 40.2007 38.7451 39.0842V31.6721C38.7451 30.5557 37.8401 29.6506 36.7236 29.6506Z" fill="#E53950"/>
<path d="M36.7236 29.6506V34.3569C36.7236 35.6107 36.2256 36.8131 35.339 37.6996C34.4525 38.5862 33.2501 39.0842 31.9963 39.0842H30.2549C30.2549 39.6204 30.4679 40.1345 30.847 40.5136C31.2261 40.8927 31.7402 41.1057 32.2764 41.1057H36.7236C37.2598 41.1057 37.7739 40.8927 38.153 40.5136C38.5321 40.1345 38.7451 39.6204 38.7451 39.0842V31.6721C38.7451 31.136 38.5321 30.6218 38.153 30.2427C37.7739 29.8636 37.2598 29.6506 36.7236 29.6506Z" fill="#CA2E43"/>
<path d="M39.7904 67.751L66.9929 52.7925C67.9232 52.281 68.2626 51.1122 67.7511 50.182L67.7103 50.1079C67.1988 49.1777 66.03 48.8382 65.0998 49.3497L37.8972 64.3082C36.967 64.8197 36.6276 65.9885 37.1391 66.9187L37.1799 66.9928C37.6914 67.9231 38.8602 68.2625 39.7904 67.751Z" fill="#FED402"/>
<path d="M68.5956 49.6205C68.3388 49.1547 67.9604 48.7672 67.5008 48.4994C67.0412 48.2316 66.5175 48.0934 65.9856 48.0997L62.7294 46.6482C58.7357 44.8708 55.3358 41.9849 52.9333 38.3331V36.7756C53.5794 36.8928 54.233 37.0171 54.8742 37.1394C56.4113 37.4331 58.0007 37.7367 59.4712 37.9348C59.6348 37.9567 59.8013 37.9435 59.9595 37.8962C60.1177 37.8489 60.264 37.7685 60.3888 37.6604C60.5136 37.5522 60.614 37.4188 60.6833 37.2689C60.7526 37.1191 60.7893 36.9562 60.7909 36.7911C60.8098 35.2123 61.6251 33.8114 62.9189 33.1346C64.0362 32.5504 65.1722 32.709 65.7502 32.8559C65.9789 32.9139 66.2197 32.901 66.441 32.8191C66.6622 32.7372 66.8533 32.59 66.9891 32.397C67.1248 32.2041 67.1988 31.9745 67.2012 31.7386C67.2036 31.5027 67.1343 31.2716 67.0025 31.0759C66.6159 30.5029 66.0161 29.3221 66.3437 27.8527C66.7004 26.2529 67.907 25.4174 68.4096 25.132C68.5713 25.0404 68.7087 24.9114 68.8103 24.7558C68.9119 24.6002 68.9748 24.4225 68.9936 24.2376C69.0125 24.0528 68.9867 23.8661 68.9186 23.6932C68.8505 23.5203 68.742 23.3662 68.6021 23.2439C68.2148 22.9051 67.3112 21.963 67.2868 20.5371C67.2783 19.8994 67.4399 19.271 67.7549 18.7164C67.8803 18.4913 67.9274 18.2309 67.8887 17.9761C67.8501 17.7214 67.7279 17.4866 67.5414 17.3088C67.3549 17.131 67.1146 17.0201 66.8583 16.9937C66.602 16.9672 66.3441 17.0266 66.1252 17.1626C65.5865 17.5035 64.9666 17.6946 64.3295 17.7164C62.8999 17.7573 61.9201 16.9016 61.5633 16.5307C61.4344 16.3967 61.2754 16.2955 61.0994 16.2356C60.9234 16.1757 60.7356 16.1588 60.5518 16.1864C60.3679 16.2141 60.1934 16.2853 60.0427 16.3943C59.8921 16.5032 59.7698 16.6467 59.686 16.8126C59.4253 17.3277 58.648 18.5724 57.0664 19.0046C55.6142 19.4013 54.4064 18.8581 53.8159 18.4988C53.6142 18.3764 53.38 18.3181 53.1445 18.3316C52.9089 18.3452 52.683 18.4299 52.4967 18.5747C52.3104 18.7195 52.1724 18.9174 52.101 19.1423C52.0297 19.3672 52.0283 19.6085 52.0971 19.8342C52.2709 20.4043 52.4833 21.5316 51.9525 22.6751C51.3378 23.9995 49.9768 24.8802 48.4008 24.9737C48.236 24.9832 48.075 25.0275 47.9286 25.1038C47.7822 25.1801 47.6537 25.2866 47.5515 25.4163C47.4494 25.5461 47.376 25.696 47.3362 25.8562C47.2963 26.0165 47.291 26.1834 47.3206 26.3458C47.3658 26.5924 47.4154 26.849 47.4699 27.1175L39.0142 29.6884C38.9701 29.6374 38.9236 29.5887 38.8763 29.5407C39.2788 29.2792 39.6825 29.0186 40.0799 28.7621C41.743 27.689 43.4628 26.5795 44.9786 25.4794C45.1168 25.3787 45.2321 25.2499 45.3168 25.1013C45.4015 24.9528 45.4536 24.7879 45.4697 24.6177C45.4858 24.4474 45.4656 24.2757 45.4104 24.1139C45.3551 23.9521 45.2661 23.8039 45.1492 23.6791C43.7183 22.1425 43.2184 20.0411 43.8447 18.1952C44.3871 16.5971 45.6282 15.705 46.3201 15.3152C46.5328 15.1952 46.7041 15.0135 46.8113 14.794C46.9185 14.5745 46.9566 14.3277 46.9204 14.0861C46.8843 13.8445 46.7756 13.6196 46.6089 13.4412C46.4421 13.2627 46.2251 13.1391 45.9865 13.0866C45.0886 12.8901 43.4272 12.3036 42.3903 10.5833C41.2626 8.71212 41.6564 6.80047 41.8779 6.06586C41.9338 5.88168 41.9447 5.6868 41.9098 5.49753C41.8748 5.30827 41.795 5.13013 41.6771 4.97806C41.5591 4.82598 41.4064 4.70438 41.2318 4.62346C41.0571 4.54254 40.8657 4.50465 40.6734 4.51296C39.9858 4.54287 38.2419 4.46431 36.8966 3.10129C36.2979 2.4905 35.8728 1.73118 35.6651 0.901507C35.5982 0.643262 35.4474 0.41455 35.2365 0.251288C35.0255 0.0880272 34.7662 -0.000534534 34.4995 -0.000488263C34.2327 -0.000441992 33.9735 0.0882097 33.7626 0.251544C33.5517 0.414878 33.401 0.643643 33.3342 0.901911C33.1264 1.73144 32.7013 2.49062 32.1027 3.10129C30.7573 4.46431 29.0125 4.54314 28.3252 4.51296C28.133 4.50478 27.9417 4.54276 27.7672 4.6237C27.5927 4.70465 27.4401 4.82622 27.3222 4.97823C27.2044 5.13024 27.1246 5.30827 27.0897 5.49743C27.0547 5.68658 27.0656 5.88136 27.1214 6.06546C27.343 6.80047 27.7367 8.71212 26.609 10.5833C25.5721 12.3038 23.9107 12.8901 23.0121 13.0867C22.7736 13.1393 22.5567 13.2631 22.39 13.4416C22.2234 13.6201 22.1148 13.845 22.0788 14.0866C22.0427 14.3281 22.0809 14.5749 22.1881 14.7944C22.2954 15.0138 22.4667 15.1954 22.6795 15.3154C23.3711 15.705 24.6122 16.5971 25.1545 18.1952C25.7808 20.0411 25.281 22.1425 23.8502 23.6789C23.7333 23.8037 23.6442 23.9519 23.5889 24.1137C23.5336 24.2756 23.5133 24.4473 23.5294 24.6175C23.5455 24.7878 23.5976 24.9526 23.6823 25.1012C23.7669 25.2498 23.8822 25.3787 24.0204 25.4794C25.5361 26.5791 27.2556 27.6886 28.9183 28.7615C29.3161 29.0182 29.7202 29.279 30.1231 29.5407C30.0757 29.5887 30.0293 29.6374 29.9851 29.6884L21.5295 27.1175C21.5838 26.8489 21.6336 26.5921 21.6788 26.3453C21.7083 26.1829 21.7029 26.016 21.6631 25.8559C21.6232 25.6957 21.5498 25.5458 21.4476 25.4162C21.3455 25.2865 21.217 25.18 21.0706 25.1037C20.9243 25.0275 20.7634 24.9832 20.5986 24.9737C19.0225 24.8802 17.6615 23.9995 17.0468 22.6753C16.516 21.5316 16.7284 20.4043 16.9022 19.8342C16.971 19.6085 16.9696 19.3672 16.8983 19.1423C16.827 18.9174 16.689 18.7195 16.5027 18.5747C16.3164 18.4299 16.0905 18.3451 15.8549 18.3316C15.6194 18.318 15.3853 18.3763 15.1835 18.4987C14.5929 18.8578 13.385 19.4011 11.9329 19.0044C10.3514 18.5725 9.57393 17.3277 9.31316 16.8126C9.22936 16.6467 9.10703 16.5032 8.9564 16.3943C8.80577 16.2854 8.63123 16.2141 8.4474 16.1865C8.26357 16.1588 8.0758 16.1757 7.89981 16.2355C7.72382 16.2954 7.56473 16.3966 7.43587 16.5305C7.07915 16.9016 6.09549 17.7591 4.66994 17.7164C4.03267 17.6947 3.41269 17.5036 2.87379 17.1627C2.65485 17.0268 2.39698 16.9675 2.14066 16.994C1.88435 17.0206 1.6441 17.1315 1.45764 17.3093C1.27119 17.4872 1.14908 17.7219 1.1105 17.9767C1.07191 18.2315 1.11904 18.4919 1.24447 18.717C1.55943 19.2713 1.72099 19.8995 1.71251 20.537C1.68812 21.9628 0.784514 22.9051 0.397467 23.2438C0.257512 23.3661 0.148912 23.5202 0.0807616 23.6932C0.0126114 23.8662 -0.0131046 24.0529 0.00576693 24.2379C0.0246385 24.4228 0.0875483 24.6005 0.189228 24.7562C0.290908 24.9118 0.428397 25.0408 0.590182 25.1324C1.09232 25.4174 2.29901 26.2529 2.6556 27.8527C2.98308 29.3221 2.38337 30.5029 1.9966 31.0762C1.86492 31.2719 1.79576 31.503 1.79825 31.7389C1.80074 31.9747 1.87477 32.2043 2.01054 32.3972C2.14632 32.5901 2.33745 32.7372 2.55866 32.8191C2.77986 32.901 3.02072 32.9139 3.24938 32.8559C3.82698 32.7089 4.96306 32.5503 6.0804 33.1346C7.37415 33.8114 8.18948 35.2123 8.20835 36.7911C8.20978 36.9562 8.24633 37.1192 8.31557 37.2691C8.3848 37.419 8.48515 37.5525 8.60993 37.6607C8.73471 37.7689 8.88108 37.8492 9.03932 37.8965C9.19755 37.9438 9.36403 37.9568 9.5277 37.9348C10.9985 37.7367 12.588 37.4331 14.125 37.1394C14.7662 37.0171 15.4199 36.8928 16.0661 36.7756V38.3331C13.6636 41.985 10.2637 44.8709 6.27001 46.6484L3.01408 48.0995C2.48222 48.0933 1.95862 48.2314 1.49901 48.4991C1.03939 48.7668 0.660943 49.1541 0.403936 49.6198L0.362833 49.6945C-0.0110093 50.3763 -0.099165 51.1786 0.117702 51.9253C0.334568 52.672 0.838751 53.3022 1.51966 53.6777L8.74822 57.6527C8.1481 59.3054 8.15655 61.1179 8.77204 62.765C9.38753 64.4121 10.5698 65.786 12.1067 66.6402C13.1847 67.2333 14.3954 67.5438 15.6258 67.5427C16.7594 67.544 17.878 67.2849 18.8955 66.7854C19.913 66.2859 20.8022 65.5593 21.4944 64.6617L28.7222 68.6363C29.404 69.0107 30.2064 69.0991 30.9533 68.8822C31.7002 68.6653 32.3304 68.1607 32.7055 67.4794L32.7462 67.4052C32.9328 67.0681 33.0507 66.6973 33.093 66.3144C33.1353 65.9314 33.1013 65.5438 32.9928 65.1741C32.9121 64.8953 32.7906 64.63 32.6323 64.3868L32.1137 60.8597C31.4031 56.0911 32.2241 51.2201 34.4587 46.948C34.473 46.9207 34.4856 46.893 34.4996 46.8657C34.5135 46.893 34.5263 46.9207 34.5405 46.948C36.7751 51.22 37.5962 56.0911 36.8855 60.8597L36.3671 64.3868C36.2088 64.63 36.0873 64.8953 36.0066 65.1741C35.8981 65.5438 35.864 65.9314 35.9063 66.3143C35.9486 66.6973 36.0665 67.0681 36.2531 67.4052L36.2939 67.4794C36.669 68.1606 37.2992 68.6652 38.0461 68.8821C38.7929 69.099 39.5953 69.0106 40.277 68.6363L47.5049 64.6617C48.1971 65.5593 49.0862 66.2859 50.1037 66.7855C51.1212 67.285 52.2399 67.5441 53.3734 67.5427C54.604 67.5437 55.8147 67.2331 56.8928 66.6399C58.4297 65.7857 59.6119 64.4119 60.2274 62.7648C60.8428 61.1177 60.8512 59.3052 60.2511 57.6525L67.4796 53.6776C68.1606 53.302 68.6647 52.6717 68.8815 51.9249C69.0983 51.1781 69.01 50.3758 68.636 49.6939L68.5956 49.6205ZM53.7859 23.5262C54.1634 22.7078 54.3421 21.8117 54.3075 20.9111C55.3786 21.2359 56.5198 21.251 57.5991 20.9545C58.938 20.582 60.1104 19.7654 60.9238 18.6387C61.9244 19.3814 63.1447 19.768 64.3904 19.737C64.707 19.7273 65.0222 19.6899 65.3324 19.6253C65.2827 19.9382 65.2603 20.2548 65.2656 20.5716C65.2948 21.8171 65.7385 23.0173 66.5266 23.9823C65.4396 24.8482 64.6793 26.0579 64.3706 27.4129C64.1256 28.5051 64.1947 29.6443 64.5698 30.6989C63.6684 30.7069 62.7818 30.9278 61.982 31.3434C61.1487 31.7909 60.4316 32.427 59.8881 33.201C59.3446 33.9751 58.9897 34.8655 58.8518 35.8012C57.6858 35.6185 56.4534 35.383 55.2535 35.1539C54.4879 35.0077 53.7047 34.8591 52.9332 34.7222V34.0901L60.7765 25.8667C60.8681 25.7707 60.9399 25.6575 60.9878 25.5337C61.0357 25.4099 61.0588 25.2779 61.0556 25.1452C61.0525 25.0125 61.0233 24.8817 60.9696 24.7603C60.9159 24.6389 60.8389 24.5293 60.7428 24.4377C60.6468 24.346 60.5336 24.2742 60.4098 24.2263C60.286 24.1784 60.154 24.1554 60.0213 24.1585C59.8886 24.1617 59.7578 24.1909 59.6364 24.2446C59.515 24.2982 59.4054 24.3753 59.3138 24.4713L52.9332 31.1611V29.5476C52.9324 28.8439 52.6875 28.1622 52.2401 27.619C51.7928 27.0758 51.1708 26.7047 50.4803 26.5691C51.936 26.0232 53.1217 24.9318 53.7861 23.5262H53.7859ZM44.102 34.3668H39.7555V31.6715C39.7555 31.6397 39.7542 31.6083 39.7531 31.5767L49.607 28.5805C49.7581 28.5346 49.9178 28.5247 50.0733 28.5516C50.2289 28.5785 50.376 28.6415 50.5028 28.7356C50.6296 28.8296 50.7327 28.952 50.8037 29.093C50.8747 29.234 50.9117 29.3897 50.9117 29.5476V38.5876C50.91 38.6209 50.91 38.6542 50.9117 38.6876V41.2077C50.9116 41.3656 50.8747 41.5213 50.8036 41.6623C50.7326 41.8033 50.6296 41.9257 50.5028 42.0197C50.3759 42.1137 50.2288 42.1766 50.0733 42.2036C49.9177 42.2305 49.758 42.2206 49.607 42.1747L39.7531 39.1787C39.754 39.147 39.7555 39.1155 39.7555 39.0837V36.3884H44.102C44.37 36.3884 44.6271 36.2819 44.8167 36.0924C45.0062 35.9028 45.1127 35.6457 45.1127 35.3777C45.1127 35.1096 45.0062 34.8525 44.8167 34.663C44.6271 34.4734 44.37 34.3668 44.102 34.3668ZM30.0144 27.0628C28.6325 26.1713 27.2111 25.2542 25.9178 24.3488C27.3952 22.3512 27.8401 19.8187 27.0687 17.5455C26.6679 16.3815 25.9694 15.3427 25.0426 14.5325C26.4146 13.9262 27.5661 12.9115 28.3403 11.6267C29.256 10.085 29.5921 8.26743 29.2885 6.50021C30.8942 6.35923 32.3994 5.65885 33.5415 4.52131C33.9079 4.14922 34.2295 3.73545 34.4996 3.28848C34.7698 3.73545 35.0914 4.14922 35.4578 4.52131C36.5999 5.65889 38.1051 6.35927 39.7109 6.50021C39.4072 8.26741 39.7433 10.085 40.659 11.6267C41.4332 12.9114 42.5848 13.9262 43.9567 14.5326C43.0298 15.3428 42.3313 16.3815 41.9306 17.5455C41.1594 19.8186 41.6042 22.3512 43.0815 24.3488C41.788 25.2543 40.366 26.1717 38.984 27.0636C38.184 27.5797 37.3611 28.1115 36.564 28.6394H35.5104V13.4913C35.5104 13.2232 35.4039 12.9662 35.2143 12.7766C35.0248 12.5871 34.7677 12.4806 34.4996 12.4806C34.2316 12.4806 33.9745 12.5871 33.7849 12.7766C33.5954 12.9662 33.4889 13.2232 33.4889 13.4913V28.6394H32.4354C31.638 28.1112 30.8146 27.5793 30.0144 27.0628ZM13.7459 35.1539C12.5459 35.383 11.3136 35.6185 10.1476 35.8012C10.0096 34.8655 9.6547 33.9751 9.11116 33.2011C8.56763 32.427 7.85057 31.7909 7.01729 31.3434C6.21751 30.9278 5.33084 30.7069 4.42952 30.6989C4.80466 29.6443 4.87371 28.5051 4.6287 27.4129C4.31994 26.0579 3.55968 24.8482 2.47272 23.9823C3.26079 23.0173 3.70453 21.817 3.73373 20.5715C3.73896 20.2548 3.71659 19.9382 3.66688 19.6253C3.97704 19.6898 4.29224 19.7272 4.60889 19.7369C5.85449 19.7673 7.07455 19.3807 8.07533 18.6386C8.88876 19.7653 10.0612 20.5819 11.4 20.9544C12.4794 21.2508 13.6207 21.2358 14.6919 20.911C14.6574 21.8117 14.836 22.7078 15.2133 23.5264C15.8777 24.9318 17.0633 26.0231 18.5189 26.569C17.8284 26.7047 17.2064 27.0759 16.7591 27.6191C16.3118 28.1623 16.0669 28.8439 16.0661 29.5476V31.1612L9.68551 24.4713C9.5941 24.3745 9.48444 24.2967 9.36286 24.2423C9.24127 24.188 9.11014 24.1583 8.97701 24.1548C8.84388 24.1513 8.71138 24.1741 8.58711 24.222C8.46284 24.2699 8.34926 24.3419 8.25289 24.4338C8.15653 24.5257 8.07927 24.6357 8.02558 24.7576C7.97188 24.8795 7.9428 25.0108 7.94 25.1439C7.9372 25.2771 7.96074 25.4094 8.00927 25.5335C8.05779 25.6575 8.13035 25.7707 8.22277 25.8666L16.0661 34.0901V34.7222C15.2946 34.8591 14.5113 35.0077 13.7459 35.1539ZM13.0807 64.8688C12.012 64.2749 11.1782 63.3338 10.7174 62.2014C10.2566 61.0689 10.1964 59.813 10.5468 58.6417L19.6943 63.6718C18.8935 64.5955 17.8012 65.2177 16.5983 65.4354C15.3955 65.6531 14.1543 65.4532 13.0807 64.8688ZM30.9748 66.4313L30.9341 66.5054C30.8174 66.7169 30.6215 66.8735 30.3895 66.9408C30.1575 67.0082 29.9082 66.9809 29.6963 66.8648L2.49388 51.9064C2.28237 51.7898 2.12572 51.5941 2.05827 51.3622C1.99082 51.1303 2.01807 50.8811 2.13406 50.6692L2.17503 50.5946C2.23269 50.4897 2.31045 50.3972 2.40387 50.3224C2.49729 50.2475 2.60454 50.1918 2.71948 50.1585C2.83443 50.1251 2.95483 50.1147 3.0738 50.1278C3.19277 50.141 3.30798 50.1775 3.41285 50.2352L30.6154 65.1937C30.7203 65.2514 30.8128 65.3292 30.8876 65.4226C30.9624 65.516 31.0181 65.6232 31.0515 65.7381C31.0849 65.8531 31.0953 65.9735 31.0821 66.0924C31.069 66.2114 31.0325 66.3266 30.9748 66.4314V66.4313ZM32.6657 46.0146C30.234 50.6635 29.3404 55.9643 30.1137 61.1536L30.3468 62.7388L5.62947 49.1469L7.09276 48.4947C10.5798 46.9423 13.6626 44.6078 16.102 41.672C16.213 42.3856 16.5747 43.0364 17.1221 43.5074C17.6696 43.9785 18.367 44.2391 19.0892 44.2424C19.3912 44.2421 19.6914 44.1971 19.9803 44.1088L22.2936 43.4055C22.4206 43.3669 22.5388 43.3037 22.6414 43.2194C22.7439 43.1351 22.8289 43.0315 22.8914 42.9144C22.9539 42.7973 22.9927 42.669 23.0056 42.5369C23.0186 42.4048 23.0053 42.2714 22.9667 42.1444C22.9281 42.0174 22.8649 41.8993 22.7806 41.7967C22.6963 41.6942 22.5927 41.6092 22.4756 41.5467C22.3585 41.4842 22.2302 41.4454 22.0981 41.4325C21.966 41.4195 21.8327 41.4327 21.7057 41.4714L19.3923 42.1748C19.2412 42.2208 19.0815 42.2307 18.9259 42.2038C18.7703 42.1768 18.6232 42.1138 18.4964 42.0198C18.3695 41.9258 18.2665 41.8034 18.1955 41.6624C18.1244 41.5213 18.0875 41.3656 18.0875 41.2077V29.5476C18.0875 29.3897 18.1244 29.234 18.1955 29.0929C18.2665 28.9519 18.3695 28.8295 18.4964 28.7355C18.6232 28.6415 18.7703 28.5785 18.9259 28.5516C19.0815 28.5246 19.2412 28.5345 19.3923 28.5805L29.2461 31.5767C29.2451 31.6083 29.2436 31.6397 29.2436 31.6716V34.3669H24.8972C24.6291 34.3669 24.372 34.4734 24.1825 34.663C23.9929 34.8525 23.8864 35.1096 23.8864 35.3777C23.8864 35.6457 23.9929 35.9028 24.1825 36.0924C24.372 36.2819 24.6291 36.3884 24.8972 36.3884H29.2436V39.0837C29.2436 39.1155 29.245 39.147 29.2461 39.1787L26.0903 40.1382C25.9624 40.1761 25.8432 40.2388 25.7397 40.3229C25.6361 40.407 25.5503 40.5108 25.487 40.6282C25.4238 40.7456 25.3844 40.8744 25.3711 41.0071C25.3579 41.1399 25.3711 41.2739 25.4099 41.4015C25.4487 41.5291 25.5123 41.6478 25.5972 41.7507C25.6821 41.8536 25.7865 41.9386 25.9044 42.001C26.0223 42.0633 26.1514 42.1017 26.2842 42.114C26.417 42.1262 26.5509 42.112 26.6782 42.0723L29.9851 41.0669C30.2692 41.3961 30.6208 41.6602 31.0161 41.8412C31.4114 42.0222 31.8411 42.1159 32.2759 42.1159H33.5777C33.6077 43.4717 33.2939 44.8129 32.6656 46.0147L32.6657 46.0146ZM34.467 40.0943H32.276C32.008 40.094 31.7511 39.9874 31.5616 39.798C31.3721 39.6085 31.2655 39.3515 31.2653 39.0836V31.6715C31.2655 31.4035 31.3721 31.1466 31.5616 30.9571C31.7511 30.7676 32.008 30.661 32.276 30.6607H34.4006C34.4332 30.664 34.4662 30.6658 34.4996 30.6658C34.5331 30.6658 34.5661 30.664 34.5987 30.6609H36.7233C36.9912 30.6611 37.2482 30.7677 37.4377 30.9572C37.6271 31.1467 37.7337 31.4036 37.734 31.6716V39.0837C37.7337 39.3517 37.6271 39.6086 37.4377 39.7981C37.2482 39.9876 36.9912 40.0942 36.7233 40.0944H34.5534C34.5247 40.0932 34.4959 40.0932 34.4672 40.0944L34.467 40.0943ZM55.919 64.8685C54.8453 65.4531 53.6041 65.6531 52.4012 65.4355C51.1982 65.2178 50.1058 64.5955 49.305 63.6718L58.4525 58.6417C58.8028 59.813 58.7426 61.0688 58.2819 62.2012C57.8211 63.3335 56.9875 64.2746 55.9189 64.8685H55.919ZM66.5055 51.9063L39.3031 66.8648C39.0912 66.9809 38.8419 67.0083 38.6099 66.9409C38.3779 66.8735 38.182 66.7169 38.0653 66.5054L38.0244 66.4313C37.908 66.2195 37.8804 65.9701 37.9478 65.738C38.0152 65.5059 38.1721 65.3101 38.3839 65.1936L58.0627 54.3723C58.2976 54.2432 58.4716 54.026 58.5464 53.7685C58.6212 53.5111 58.5906 53.2345 58.4614 52.9995C58.3323 52.7646 58.1151 52.5906 57.8576 52.5159C57.6002 52.4411 57.3236 52.4717 57.0886 52.6008L38.6526 62.7388L38.8856 61.1536C39.6589 55.9643 38.7653 50.6635 36.3335 46.0146C35.9485 45.2765 35.6798 44.4834 35.5371 43.6633C35.5311 43.6296 35.5263 43.5958 35.5209 43.562C35.5815 43.0825 35.6075 42.5992 35.5988 42.1159H36.7233C37.1581 42.1159 37.5877 42.0222 37.983 41.8412C38.3783 41.6602 38.73 41.3961 39.014 41.0669L49.019 44.1088C49.3078 44.1971 49.6081 44.2421 49.9101 44.2424C50.6323 44.2391 51.3297 43.9785 51.8771 43.5074C52.4245 43.0364 52.7862 42.3856 52.8972 41.672C55.3365 44.6079 58.4193 46.9425 61.9064 48.4948L63.3697 49.1469L60.9913 50.4548C60.7579 50.5847 60.5853 50.8018 60.5114 51.0586C60.4376 51.3153 60.4684 51.5909 60.5971 51.825C60.7258 52.0592 60.942 52.2328 61.1984 52.308C61.4548 52.3831 61.7305 52.3537 61.9653 52.2262L65.5864 50.235C65.6913 50.1773 65.8066 50.1408 65.9256 50.1277C66.0447 50.1145 66.1651 50.125 66.2801 50.1584C66.3951 50.1919 66.5024 50.2476 66.5958 50.3226C66.6892 50.3975 66.7669 50.4901 66.8245 50.5951L66.8649 50.6684C66.9811 50.8803 67.0085 51.1296 66.9411 51.3616C66.8737 51.5937 66.7171 51.7895 66.5055 51.9063Z" fill="#282828"/>
</g>
<defs>
<clipPath id="clip0_359_50">
<rect width="69" height="69" fill="white"/>
</clipPath>
</defs>
</svg>
