<svg width="28" height="30" viewBox="0 0 28 30" fill="none" xmlns="http://www.w3.org/2000/svg">
<g filter="url(#filter0_d_306_2)">
<path d="M11.5 10.4999H14C14.2652 10.4999 14.5196 10.3946 14.7071 10.2071C14.8947 10.0195 15 9.76516 15 9.49995C15 9.23473 14.8947 8.98038 14.7071 8.79284C14.5196 8.6053 14.2652 8.49995 14 8.49995H13V7.99995C13 7.73473 12.8947 7.48038 12.7071 7.29284C12.5196 7.1053 12.2652 6.99995 12 6.99995C11.7348 6.99995 11.4804 7.1053 11.2929 7.29284C11.1054 7.48038 11 7.73473 11 7.99995V8.54995C10.3924 8.67332 9.85237 9.01805 9.48466 9.51721C9.11696 10.0164 8.94785 10.6344 9.01015 11.2512C9.07246 11.868 9.36174 12.4397 9.82184 12.8553C10.2819 13.2708 10.88 13.5006 11.5 13.4999H12.5C12.6326 13.4999 12.7598 13.5526 12.8536 13.6464C12.9473 13.7402 13 13.8673 13 13.9999C13 14.1326 12.9473 14.2597 12.8536 14.3535C12.7598 14.4473 12.6326 14.4999 12.5 14.4999H10C9.73479 14.4999 9.48044 14.6053 9.2929 14.7928C9.10537 14.9804 9.00001 15.2347 9.00001 15.4999C9.00001 15.7652 9.10537 16.0195 9.2929 16.2071C9.48044 16.3946 9.73479 16.4999 10 16.4999H11V16.9999C11 17.2652 11.1054 17.5195 11.2929 17.7071C11.4804 17.8946 11.7348 17.9999 12 17.9999C12.2652 17.9999 12.5196 17.8946 12.7071 17.7071C12.8947 17.5195 13 17.2652 13 16.9999V16.4499C13.6076 16.3266 14.1476 15.9818 14.5154 15.4827C14.8831 14.9835 15.0522 14.3655 14.9899 13.7487C14.9276 13.1319 14.6383 12.5602 14.1782 12.1446C13.7181 11.7291 13.12 11.4993 12.5 11.4999H11.5C11.3674 11.4999 11.2402 11.4473 11.1465 11.3535C11.0527 11.2597 11 11.1326 11 10.9999C11 10.8673 11.0527 10.7402 11.1465 10.6464C11.2402 10.5526 11.3674 10.4999 11.5 10.4999ZM23 11.9999H20V2.99995C20.0007 2.82374 19.9548 2.65047 19.867 2.49769C19.7792 2.34491 19.6526 2.21805 19.5 2.12995C19.348 2.04218 19.1755 1.99597 19 1.99597C18.8245 1.99597 18.652 2.04218 18.5 2.12995L15.5 3.84995L12.5 2.12995C12.348 2.04218 12.1755 1.99597 12 1.99597C11.8245 1.99597 11.652 2.04218 11.5 2.12995L8.50001 3.84995L5.50001 2.12995C5.34799 2.04218 5.17554 1.99597 5.00001 1.99597C4.82447 1.99597 4.65203 2.04218 4.50001 2.12995C4.3474 2.21805 4.22079 2.34491 4.13299 2.49769C4.04518 2.65047 3.99931 2.82374 4.00001 2.99995V18.9999C4.00001 19.7956 4.31608 20.5587 4.87869 21.1213C5.4413 21.6839 6.20436 21.9999 7.00001 21.9999H21C21.7957 21.9999 22.5587 21.6839 23.1213 21.1213C23.6839 20.5587 24 19.7956 24 18.9999V12.9999C24 12.7347 23.8947 12.4804 23.7071 12.2928C23.5196 12.1053 23.2652 11.9999 23 11.9999ZM7.00001 19.9999C6.73479 19.9999 6.48044 19.8946 6.2929 19.7071C6.10536 19.5195 6.00001 19.2652 6.00001 18.9999V4.72995L8.00001 5.86995C8.15435 5.95056 8.32589 5.99266 8.50001 5.99266C8.67413 5.99266 8.84567 5.95056 9.00001 5.86995L12 4.14995L15 5.86995C15.1543 5.95056 15.3259 5.99266 15.5 5.99266C15.6741 5.99266 15.8457 5.95056 16 5.86995L18 4.72995V18.9999C18.0027 19.3411 18.0636 19.6793 18.18 19.9999H7.00001ZM22 18.9999C22 19.2652 21.8947 19.5195 21.7071 19.7071C21.5196 19.8946 21.2652 19.9999 21 19.9999C20.7348 19.9999 20.4804 19.8946 20.2929 19.7071C20.1054 19.5195 20 19.2652 20 18.9999V13.9999H22V18.9999Z" fill="#F3F0F0"/>
</g>
<defs>
<filter id="filter0_d_306_2" x="-2" y="0" width="32" height="32" filterUnits="userSpaceOnUse" color-interpolation-filters="sRGB">
<feFlood flood-opacity="0" result="BackgroundImageFix"/>
<feColorMatrix in="SourceAlpha" type="matrix" values="0 0 0 0 0 0 0 0 0 0 0 0 0 0 0 0 0 0 127 0" result="hardAlpha"/>
<feOffset dy="4"/>
<feGaussianBlur stdDeviation="2"/>
<feComposite in2="hardAlpha" operator="out"/>
<feColorMatrix type="matrix" values="0 0 0 0 0 0 0 0 0 0 0 0 0 0 0 0 0 0 0.25 0"/>
<feBlend mode="normal" in2="BackgroundImageFix" result="effect1_dropShadow_306_2"/>
<feBlend mode="normal" in="SourceGraphic" in2="effect1_dropShadow_306_2" result="shape"/>
</filter>
</defs>
</svg>
