<svg width="26" height="26" viewBox="0 0 26 26" fill="none" xmlns="http://www.w3.org/2000/svg">
<path d="M12.0769 20.3846H13.9231M18.5385 9.30769V5.61538M10.2308 9.30769V2.84615H4.69232V9.30769M22.2308 3.30769C22.2308 3.61074 22.1711 3.91083 22.0551 4.19081C21.9391 4.47079 21.7692 4.72519 21.5549 4.93948C21.3406 5.15377 21.0862 5.32375 20.8062 5.43972C20.5262 5.55569 20.2261 5.61538 19.9231 5.61538H17.1539C16.5418 5.61538 15.9549 5.37225 15.5221 4.93948C15.0893 4.5067 14.8462 3.91973 14.8462 3.30769C14.8462 2.69565 15.0893 2.10868 15.5221 1.67591C15.9549 1.24313 16.5418 1 17.1539 1H19.9231C20.2261 1 20.5262 1.05969 20.8062 1.17566C21.0862 1.29164 21.3406 1.46162 21.5549 1.67591C21.7692 1.8902 21.9391 2.14459 22.0551 2.42458C22.1711 2.70456 22.2308 3.00464 22.2308 3.30769Z" stroke="#F3F0F0" stroke-linecap="round" stroke-linejoin="round"/>
<path d="M23.1538 15.7693H2.84615C1.82655 15.7693 1 16.5958 1 17.6154V23.1539C1 24.1735 1.82655 25.0001 2.84615 25.0001H23.1538C24.1734 25.0001 25 24.1735 25 23.1539V17.6154C25 16.5958 24.1734 15.7693 23.1538 15.7693Z" stroke="#F3F0F0" stroke-linecap="round" stroke-linejoin="round"/>
<path d="M23.1538 15.7693V11.1539C23.1538 10.6643 22.9593 10.1947 22.6131 9.84847C22.2669 9.50224 21.7973 9.30774 21.3077 9.30774H4.69228C4.20265 9.30774 3.73308 9.50224 3.38686 9.84847C3.04064 10.1947 2.84613 10.6643 2.84613 11.1539V15.7693" stroke="#F3F0F0" stroke-linecap="round" stroke-linejoin="round"/>
</svg>
