<svg width="33" height="33" viewBox="0 0 33 33" fill="none" xmlns="http://www.w3.org/2000/svg">
<path d="M14.9171 27.39C14.9171 27.39 14.7908 28.4187 14.5562 29.1947C14.3577 29.8521 14.0431 30.36 14.0148 31.0355C13.9916 31.5924 14.4299 32.0255 16.4872 32.0642C18.2352 32.0951 18.841 31.546 18.7869 30.788C18.7353 30.0842 18.4363 29.5556 18.2738 28.7435C18.1578 28.1583 18.0753 27.4622 18.0753 27.4622L14.9171 27.39Z" fill="#835D4E"/>
<path d="M17.276 7.20068L12.772 8.87131L9.77626 9.38693C9.77626 9.38693 9.4179 9.84068 9.88455 10.3744C10.2223 10.7585 10.7895 11.0344 11.5655 11.0421C12.4395 11.0498 12.7927 10.7069 12.8906 10.9983C12.9886 11.2896 11.782 12.0089 11.1195 12.3982C10.4569 12.7875 8.29126 13.4578 8.19587 14.4272C8.12369 15.1722 8.86619 15.6672 9.23228 15.7833C9.69892 15.9302 10.3615 15.8993 10.5549 15.9199C10.7482 15.9405 10.8075 16.3092 10.5342 16.5412C10.261 16.7758 9.52361 17.0285 9.01829 17.2219C8.51298 17.4152 6.45048 18.0984 6.1772 18.2144C5.90392 18.3304 5.59455 18.8177 5.82658 19.537C6.06119 20.2563 6.8965 20.8003 7.65447 21.0736C8.41244 21.3469 8.62642 21.2283 8.62642 21.2283C8.62642 21.2283 8.52072 21.6408 8.14173 21.9837C7.76275 22.3265 6.56392 23.6027 6.56392 23.6027C6.56392 23.6027 4.29775 23.662 4.09923 23.8244C3.90072 23.9869 3.77439 24.3839 3.86462 24.7629C3.95486 25.1419 4.24361 26.0983 6.0483 26.6217C7.85298 27.1451 9.06212 26.6217 9.06212 26.6217C9.06212 26.6217 8.464 27.7715 9.83814 28.3181C10.8745 28.7306 12.4549 28.2459 12.852 28.1376C13.249 28.0294 14.6386 27.4519 14.6386 27.4519C14.6386 27.4519 15.0176 28.3594 16.5516 28.4264C18.1758 28.4986 19.3127 27.7045 19.3127 27.7045C19.3127 27.7045 21.5609 29.0787 23.2831 28.3542C24.5283 27.8308 24.1313 26.5856 24.1313 26.5856C24.1313 26.5856 26.3149 26.9646 27.9031 26.3329C29.4912 25.7013 29.7438 24.8351 29.7438 24.4019C29.7438 23.9688 29.1122 23.6027 28.8235 23.6208C28.5347 23.6388 27.6865 23.5357 27.1812 23.3191C26.6759 23.1026 25.9952 22.7494 25.9952 22.7494C25.9952 22.7494 24.8145 22.3626 24.041 21.6949C23.7188 21.419 23.7523 21.1355 24.2215 21.1174C24.6907 21.0994 26.1138 21.1122 26.9285 20.5219C27.7845 19.9005 27.7845 19.3462 27.7406 19.0962C27.6762 18.7378 27.2946 18.5934 27.2946 18.5934C27.2946 18.5934 24.0256 17.5622 23.9534 17.4719C23.8812 17.3817 23.3578 16.7862 23.3037 16.732C23.2495 16.6779 22.3292 16.335 22.5277 16.0643C22.7262 15.7936 23.7703 15.7858 24.3685 15.1619C25.0671 14.4323 24.8738 13.7723 24.6392 13.5197C24.4045 13.267 23.9817 13.1355 23.9817 13.1355C23.9817 13.1355 23.1877 13.3701 22.917 13.2438C22.6463 13.1175 21.3572 11.88 21.3572 11.88C21.3572 11.88 20.2615 11.269 20.2744 11.0833C20.2924 10.8307 21.3985 11.0911 22.3137 10.7946C23.1361 10.529 23.1052 9.96186 23.0536 9.74787C22.9737 9.41272 22.6772 9.2735 22.4787 9.12912C22.2776 8.98732 17.276 7.20068 17.276 7.20068Z" fill="#0A7C1F"/>
<path d="M15.4404 3.91614C15.4404 3.91614 14.7314 5.39083 13.5274 6.73145C11.6144 8.86098 9.75562 9.40239 9.75562 9.40239C9.75562 9.40239 9.99023 10.0882 11.2355 10.0521C12.6431 10.0108 14.4839 9.00536 14.4839 9.00536C14.4839 9.00536 15.0253 10.3047 15.693 11.0627C16.4948 11.9728 17.4384 12.6354 18.382 12.1455C18.7378 11.9599 18.81 11.1865 18.382 10.6476C17.3301 9.32247 18.0082 9.42043 18.083 9.48747C18.083 9.48747 18.9054 10.1243 20.4187 10.1062C21.9321 10.0882 22.4761 9.13168 22.4761 9.13168C22.4761 9.13168 20.5992 8.08497 19.372 6.65926C18.1448 5.23356 17.1342 4.00637 17.1342 4.00637L15.4404 3.91614Z" fill="#02AB48"/>
<path d="M14.6644 11.6737C14.6618 11.6763 13.7878 12.2383 12.8056 12.161C12.3802 12.1275 12.0786 11.8103 12.0786 11.8103C12.0786 11.8103 11.104 12.3827 10.6219 12.6302C10.0264 12.937 9.26324 13.2412 8.86105 13.5325C8.66254 13.6769 8.3841 13.9837 8.3841 13.9837C8.3841 13.9837 8.52848 14.6514 9.79176 14.6514C11.055 14.6514 11.9032 14.489 12.6793 14.7056C13.4553 14.9221 14.6644 16.1313 15.5126 16.1313C16.3608 16.1313 16.9564 14.9943 17.7685 14.9943C18.5806 14.9943 18.7971 15.4094 20.0424 15.5357C21.2876 15.6621 23.2547 14.9402 23.7059 14.5071C24.3169 13.9193 23.9843 13.1355 23.9843 13.1355C23.9843 13.1355 23.1928 12.8184 22.4813 12.4729C21.8651 12.1739 21.3624 11.8903 21.3624 11.8903C21.3624 11.8903 21.0736 12.2151 20.7488 12.1971C20.4239 12.179 19.9573 11.9934 19.5783 12.2821C19.1993 12.5709 18.9725 13.0246 18.2222 13.1355C16.3789 13.4062 14.6644 11.6737 14.6644 11.6737ZM6.16691 18.2247C6.16691 18.2247 5.90394 19.1013 7.11566 19.6453C8.32738 20.1893 10.6039 19.7071 10.7096 19.8128C10.8153 19.9185 8.84301 20.9859 9.87426 21.8599C11.1066 22.904 14.2829 19.7922 14.4917 19.7922C14.7005 19.7922 14.8062 22.3626 16.0798 22.8215C17.3534 23.2804 18.6064 21.401 19.3798 21.1715C20.1532 20.9421 20.7178 21.6304 21.7182 21.6717C23.0382 21.7258 23.6827 21.3803 23.7652 20.8364C23.8477 20.2924 22.6798 19.3127 22.9299 19.1039C23.18 18.895 23.6182 19.6685 25.3739 19.5421C27.1296 19.4158 27.305 18.5934 27.305 18.5934L23.2934 16.7346C23.2934 16.7346 22.7417 17.392 21.8651 17.4126C20.9886 17.4332 18.7739 17.0568 17.8974 17.3069C17.0208 17.557 16.7475 18.5599 15.2857 18.498C13.8239 18.4361 12.8417 17.4539 11.8388 17.9334C10.8359 18.4129 10.1011 19.0265 9.54426 18.6836C9.22457 18.4851 9.25808 18.2015 9.28644 17.7607C9.30707 17.4255 9.43597 17.0723 9.43597 17.0723L6.16691 18.2247Z" fill="#02AB48"/>
<path d="M4.08887 23.8347C4.08887 23.8347 4.6509 25.3713 7.39145 25.3713C9.73238 25.3713 10.5548 24.0719 10.9982 23.7007C11.4391 23.3294 11.7588 22.8087 11.9006 23.0381C12.0424 23.2676 10.4852 24.9485 9.8484 25.5672C9.49262 25.9127 9.05176 26.5753 9.72465 27.0007C10.3975 27.4261 11.9702 27.2301 13.2438 26.6836C14.5174 26.137 14.8886 25.0026 14.8886 25.0026C14.8886 25.0026 13.9347 24.6314 13.7568 23.4815C13.5789 22.3317 13.5274 21.8444 13.1561 21.7929C12.7849 21.7387 10.1397 23.8966 8.50262 23.198C7.72402 22.8654 8.12879 21.9965 8.12879 21.9965C8.12879 21.9965 7.37855 22.5895 6.37051 22.9737C5.59965 23.265 4.08887 23.8347 4.08887 23.8347ZM15.4043 25.0903C15.4043 25.0903 15.0743 26.1215 15.1413 26.3742C15.2676 26.8563 15.7394 27.3539 16.9254 27.2637C18.1113 27.176 18.7636 26.7326 18.7481 26.3433C18.7326 25.954 17.9695 24.982 18.3407 24.7345C18.712 24.487 18.9775 25.0516 19.3488 25.6549C19.72 26.2582 21.3288 28.2021 23.0278 27.2817C24.5824 26.4387 22.4967 24.7706 22.9221 24.5051C23.3475 24.2395 24.3555 25.1754 25.8921 25.1058C28.6146 24.982 28.9858 23.6388 28.9858 23.6388C28.9858 23.6388 27.9417 23.3733 27.341 23.2134C26.7403 23.0536 25.9952 22.7519 25.9952 22.7519C25.9952 22.7519 24.7757 23.3733 23.0793 23.3191C21.3829 23.265 20.3723 22.5947 19.6479 22.7184C18.9234 22.8422 18.3743 23.8657 17.4719 24.4509C16.2164 25.2656 15.4043 25.0903 15.4043 25.0903Z" fill="#02AB48"/>
<path d="M17.3765 4.51944C17.361 4.56585 16.9433 6.06374 16.4973 6.06374C16.0487 6.06374 15.3088 4.45757 15.3088 4.45757C15.3088 4.45757 13.7439 4.40858 13.6717 4.1946C13.5789 3.91616 14.7055 2.72765 14.7055 2.72765C14.7055 2.72765 14.5044 1.09054 14.6901 0.93585C14.8989 0.760537 16.3581 1.73765 16.3581 1.73765C16.3581 1.73765 17.8431 0.889443 18.088 1.07249C18.3355 1.25812 17.8869 2.66319 17.8869 2.66319C17.8869 2.66319 19.0754 3.63515 18.9826 3.89812C18.8898 4.16366 17.3765 4.51944 17.3765 4.51944Z" fill="#FCC11A"/>
<path d="M15.3992 1.42828C15.3347 1.47984 15.4585 1.80469 15.7782 2.18367C16.0978 2.56266 16.3221 2.87719 16.3918 2.8875C16.4614 2.89523 16.928 2.29969 17.0904 2.11922C17.2554 1.93875 17.4488 1.58039 17.3921 1.52367C17.2889 1.42055 16.3737 2.05992 16.3737 2.05992C16.3737 2.05992 15.5075 1.3432 15.3992 1.42828ZM13.86 4.01414C13.9348 4.06828 15.7601 3.3825 15.7859 3.28969C15.8143 3.18141 15.2419 2.93648 15.0692 2.88492C14.8964 2.83336 14.5845 3.10148 14.2932 3.42117C14.0431 3.6893 13.7982 3.97031 13.86 4.01414Z" fill="#FEE56B"/>
<path d="M16.8739 6.69534C15.9561 6.70823 15.5487 7.33729 15.559 8.09526C15.5693 8.85323 16.1133 9.36628 16.9693 9.35596C17.8252 9.34565 18.2712 8.75784 18.2403 7.93542C18.2145 7.2187 17.7066 6.68502 16.8739 6.69534Z" fill="#FF5F5E"/>
<path d="M20.411 11.8078C19.4932 11.8206 18.9596 12.5013 18.9699 13.2592C18.9802 14.0172 19.5577 14.605 20.4755 14.5947C21.4165 14.5844 21.8857 13.9115 21.8522 13.0891C21.8264 12.3749 21.2438 11.7974 20.411 11.8078Z" fill="#FCD81E"/>
<path d="M14.2468 12.0734C13.2851 12.0863 12.7721 12.7514 12.7824 13.5584C12.7927 14.3653 13.4372 14.9377 14.3318 14.9248C15.2264 14.9145 15.7214 14.2725 15.6879 13.3985C15.6596 12.6354 15.1182 12.0631 14.2468 12.0734Z" fill="#DF0E2B"/>
<path d="M11.7072 16.9563C10.7353 16.9666 10.2557 17.6833 10.266 18.5264C10.2789 19.3694 10.8667 19.9263 11.8129 19.9134C12.7591 19.9005 13.2567 19.2483 13.2231 18.333C13.1922 17.539 12.6302 16.946 11.7072 16.9563Z" fill="#FFD2B1"/>
<path d="M17.1292 18.4232C16.1082 18.4361 15.6571 19.1348 15.6699 19.9778C15.6828 20.8209 16.2861 21.3906 17.2349 21.3778C18.1836 21.3649 18.6812 20.7126 18.6477 19.7999C18.6167 19.0059 18.0547 18.4129 17.1292 18.4232Z" fill="#FCD81E"/>
<path d="M22.0276 16.9667C20.9989 16.9796 20.4962 17.6937 20.5065 18.5471C20.5194 19.4004 21.1175 20.0321 22.0766 20.0218C23.0331 20.0089 23.5951 19.2896 23.559 18.364C23.5306 17.5571 22.9635 16.9564 22.0276 16.9667Z" fill="#FF5F5D"/>
<path d="M22.556 24.237C22.6024 23.296 22.0455 22.801 21.2721 22.7546C20.4986 22.7082 19.9134 23.18 19.8593 24.054C19.8051 24.928 20.3336 25.5132 21.1741 25.5415C21.9063 25.5673 22.5122 25.1368 22.556 24.237Z" fill="#C9C9C9"/>
<path d="M12.1302 22.8421C11.1737 22.855 10.7509 23.4996 10.7612 24.2756C10.7715 25.0516 11.3387 25.5775 12.2281 25.5672C13.1176 25.5569 13.5842 24.9536 13.5507 24.1132C13.5249 23.3758 12.999 22.8293 12.1302 22.8421Z" fill="#FF5F5E"/>
<path d="M11.2277 24.2499C11.5061 24.3994 11.6118 23.9946 11.7511 23.8554C11.8903 23.7162 12.2203 23.4816 12.0604 23.2779C11.9006 23.0742 11.4933 23.1903 11.3025 23.4068C11.0447 23.6956 11.0008 24.1287 11.2277 24.2499ZM20.3697 24.2086C20.6482 24.3581 20.7668 23.9508 20.8828 23.791C21.0323 23.5873 21.3958 23.4481 21.236 23.247C21.0761 23.0433 20.6894 23.1722 20.4986 23.3862C20.2408 23.6749 20.1429 24.0849 20.3697 24.2086ZM21.0787 18.4723C21.3855 18.6296 21.5015 18.1861 21.6511 18.0031C21.7851 17.8406 22.177 17.6653 21.9991 17.4514C21.8212 17.2374 21.4036 17.3508 21.1922 17.5751C20.9086 17.8793 20.8286 18.3434 21.0787 18.4723ZM16.2267 19.947C16.5051 20.0965 16.6108 19.6917 16.7501 19.5525C16.8893 19.4133 17.2193 19.1039 17.0594 18.9003C16.8996 18.6966 16.5051 18.8255 16.3015 19.1039C16.0746 19.4159 15.9998 19.8258 16.2267 19.947ZM10.7894 18.4826C11.0679 18.6321 11.2432 18.2093 11.3643 18.0546C11.599 17.7556 11.8233 17.5957 11.6634 17.3921C11.5036 17.1884 11.0756 17.3611 10.8642 17.637C10.6322 17.9464 10.5651 18.3614 10.7894 18.4826ZM13.3392 13.5481C13.6176 13.6976 13.7517 13.3135 13.8626 13.1536C14.0327 12.9087 14.3524 12.705 14.1926 12.5014C14.0327 12.2977 13.6486 12.406 13.414 12.705C13.1768 13.0067 13.1123 13.4243 13.3392 13.5481ZM19.5525 13.4166C19.8567 13.5816 19.9727 13.1356 20.1248 12.9835C20.2769 12.8314 20.6404 12.5735 20.4651 12.3518C20.2898 12.1301 19.8438 12.2564 19.635 12.491C19.3514 12.8081 19.3024 13.2851 19.5525 13.4166ZM15.956 8.07213C16.2344 8.22166 16.3401 7.8169 16.4793 7.67768C16.6186 7.53846 16.9486 7.30385 16.7887 7.10018C16.6289 6.89651 16.3066 7.00479 16.072 7.28065C15.8245 7.57713 15.7291 7.95096 15.956 8.07213Z" fill="#F9FFFF"/>
<path d="M13.0221 8.31702C12.6251 8.31702 12.4446 8.48717 12.4137 8.84038C12.3827 9.18327 12.5967 9.39467 12.9164 9.41788C13.365 9.44881 13.5042 9.07756 13.5042 8.84038C13.5016 8.57225 13.2876 8.31702 13.0221 8.31702ZM14.7262 9.83038C14.3911 9.61897 14.1023 9.76077 13.9631 9.9335C13.7646 10.1784 13.7955 10.5523 14.074 10.7044C14.4375 10.9029 14.7288 10.7508 14.8474 10.5729C15.0279 10.3048 14.9737 9.98764 14.7262 9.83038ZM16.2473 10.5445C15.9044 10.609 15.7446 10.8848 15.8116 11.2329C15.8632 11.5062 16.1648 11.6995 16.4742 11.6248C16.9125 11.5216 16.9331 11.122 16.8609 10.8977C16.7836 10.6451 16.5103 10.4981 16.2473 10.5445ZM20.5734 8.94608C20.2615 8.70116 19.9418 8.79397 19.7794 8.99764C19.5937 9.22967 19.5783 9.53131 19.8129 9.74788C20.0913 10.0031 20.4806 9.86905 20.6172 9.69374C20.7745 9.49522 20.7822 9.11108 20.5734 8.94608ZM18.7997 10.3666C18.4001 10.3666 18.217 10.5368 18.1835 10.8874C18.1526 11.2277 18.3794 11.4494 18.7017 11.4726C19.1555 11.5036 19.2844 11.122 19.2844 10.8874C19.2869 10.6219 19.0704 10.3666 18.7997 10.3666ZM11.599 14.1049C11.1916 14.1049 11.006 14.2776 10.9725 14.6334C10.9415 14.9789 11.1607 15.1929 11.4881 15.2161C11.9496 15.2496 12.0914 14.8706 12.0914 14.6334C12.0914 14.3627 11.8722 14.1049 11.599 14.1049ZM13.4346 15.51C13.0427 15.3862 12.8313 15.5048 12.6715 15.8323C12.5426 16.0978 12.6715 16.451 12.986 16.5567C13.4397 16.7062 13.6718 16.4072 13.744 16.1751C13.829 15.9122 13.6976 15.5925 13.4346 15.51ZM15.8683 17.1729C15.858 16.7604 15.6672 16.5773 15.2883 16.5541C14.917 16.5309 14.6979 16.7604 14.6824 17.0955C14.6618 17.5648 15.0665 17.6988 15.3192 17.6911C15.6079 17.6808 15.8761 17.4513 15.8683 17.1729ZM17.8174 16.4536C17.392 16.4536 17.1987 16.634 17.1626 17.0079C17.129 17.3714 17.3585 17.5931 17.7014 17.6189C18.1835 17.6524 18.333 17.258 18.333 17.0079C18.333 16.7243 18.1036 16.4536 17.8174 16.4536ZM20.2151 15.7162C19.818 15.7162 19.6376 15.8864 19.6066 16.2396C19.5757 16.5825 19.7897 16.7939 20.1094 16.8171C20.558 16.848 20.6972 16.4768 20.6972 16.2396C20.6946 15.974 20.4806 15.7162 20.2151 15.7162ZM21.8032 15.2187C21.8831 15.5719 22.1564 15.7059 22.4993 15.6183C22.8319 15.5332 22.9608 15.2625 22.8757 14.9531C22.7571 14.52 22.3575 14.5123 22.1358 14.5922C21.8857 14.6798 21.7465 14.9583 21.8032 15.2187ZM25.2553 18.8512C24.8789 18.8512 24.7062 19.0162 24.6752 19.354C24.6443 19.684 24.8479 19.8876 25.1547 19.9083C25.5827 19.9392 25.7142 19.5808 25.7142 19.354C25.7142 19.0987 25.5105 18.8512 25.2553 18.8512ZM24.0771 20.8467C24.1158 20.411 23.9482 20.197 23.5666 20.1274C23.1954 20.0604 22.9453 20.2744 22.8886 20.6224C22.8087 21.1123 23.2031 21.3005 23.4609 21.3237C23.7522 21.3494 24.0513 21.1406 24.0771 20.8467ZM21.419 21.1148C21.0014 21.1329 20.7745 21.419 20.8003 21.8315C20.8261 22.2337 21.1174 22.4374 21.4964 22.4039C22.0275 22.3575 22.1229 21.9012 22.079 21.6279C22.0301 21.3211 21.7362 21.0994 21.419 21.1148ZM19.0008 21.9759C18.5754 21.9218 18.3201 22.1719 18.2815 22.5792C18.2454 22.9737 18.498 23.2108 18.8744 23.2444C19.4829 23.3011 19.568 22.8525 19.568 22.5792C19.568 22.2724 19.3127 22.0146 19.0008 21.9759ZM15.9766 22.3059C15.559 22.324 15.3321 22.6101 15.3579 23.0226C15.3837 23.4248 15.675 23.6285 16.054 23.595C16.5851 23.5486 16.6804 23.0923 16.6366 22.819C16.5902 22.5122 16.2937 22.293 15.9766 22.3059ZM13.3418 21.4964C12.9319 21.5144 12.7179 21.8393 12.7359 22.1951C12.754 22.5844 13.0453 22.7829 13.4165 22.7494C13.9373 22.703 14.0301 22.2595 13.9889 21.9965C13.9399 21.6949 13.6512 21.4809 13.3418 21.4964ZM10.8694 20.4987C10.4594 20.5167 10.2377 20.7951 10.2635 21.1948C10.2893 21.584 10.5703 21.78 10.9415 21.7465C11.4623 21.7001 11.5551 21.2592 11.5139 20.9937C11.4675 20.6972 11.1787 20.4858 10.8694 20.4987ZM9.32248 18.5419C8.96928 18.5573 8.7785 18.7997 8.8017 19.1503C8.8249 19.4906 9.06725 19.6633 9.38693 19.635C9.83553 19.5963 9.91545 19.2096 9.87678 18.9776C9.83811 18.7172 9.58803 18.5315 9.32248 18.5419Z" fill="#F9C319"/>
</svg>
