<svg width="22" height="20" viewBox="0 0 22 20" fill="none" xmlns="http://www.w3.org/2000/svg">
<path d="M9.25 19.975C7.95 19.875 6.73733 19.55 5.612 19C4.48667 18.45 3.50767 17.7293 2.675 16.838C1.84167 15.946 1.18733 14.9127 0.712001 13.738C0.236668 12.5633 -0.000665266 11.3173 1.40056e-06 10C1.40056e-06 8.61667 0.262668 7.31667 0.788001 6.1C1.31333 4.88333 2.02567 3.825 2.925 2.925C3.825 2.025 4.88334 1.31267 6.1 0.788C7.31667 0.263333 8.61667 0.000666667 10 0C11.3833 0 12.6833 0.262667 13.9 0.788C15.1167 1.31333 16.175 2.02567 17.075 2.925C17.975 3.825 18.6877 4.88333 19.213 6.1C19.7383 7.31667 20.0007 8.61667 20 10V10.475C19.7167 10.2917 19.3873 10.1127 19.012 9.938C18.6367 9.76333 18.291 9.61733 17.975 9.5C17.8417 7.4 17.0123 5.625 15.487 4.175C13.9617 2.725 12.1327 2 10 2C9.06667 2 8.18734 2.15 7.362 2.45C6.53667 2.75 5.78267 3.16667 5.1 3.7L11.225 9.825C10.9083 9.95833 10.6043 10.1127 10.313 10.288C10.0217 10.4633 9.734 10.6507 9.45 10.85L3.7 5.1C3.16667 5.78333 2.75 6.53767 2.45 7.363C2.15 8.18833 2 9.06733 2 10C2 11.65 2.446 13.1293 3.338 14.438C4.23 15.7467 5.384 16.709 6.8 17.325C7.1 17.7917 7.475 18.2667 7.925 18.75C8.375 19.2333 8.81667 19.6417 9.25 19.975ZM15 18C15.9833 18 16.896 17.775 17.738 17.325C18.58 16.875 19.2507 16.2667 19.75 15.5C19.25 14.7333 18.579 14.125 17.737 13.675C16.895 13.225 15.9827 13 15 13C14.0167 13 13.104 13.225 12.262 13.675C11.42 14.125 10.7493 14.7333 10.25 15.5C10.75 16.2667 11.421 16.875 12.263 17.325C13.105 17.775 14.0173 18 15 18ZM15 20C13.4 20 11.9707 19.579 10.712 18.737C9.45333 17.895 8.54933 16.816 8 15.5C8.55 14.1833 9.45433 13.104 10.713 12.262C11.9717 11.42 13.4007 10.9993 15 11C16.6 11 18.0293 11.421 19.288 12.263C20.5467 13.105 21.4507 14.184 22 15.5C21.45 16.8167 20.5457 17.896 19.287 18.738C18.0283 19.58 16.5993 20.0007 15 20ZM15 17C14.5833 17 14.229 16.854 13.937 16.562C13.645 16.27 13.4993 15.916 13.5 15.5C13.5 15.0833 13.646 14.729 13.938 14.437C14.23 14.145 14.584 13.9993 15 14C15.4167 14 15.771 14.146 16.063 14.438C16.355 14.73 16.5007 15.084 16.5 15.5C16.5 15.9167 16.354 16.271 16.062 16.563C15.77 16.855 15.416 17.0007 15 17Z" fill="#F3F0F0"/>
</svg>
