<svg width="22" height="21" viewBox="0 0 22 21" fill="none" xmlns="http://www.w3.org/2000/svg">
<path d="M2.25 20.5C1.76389 20.5 1.3505 20.3297 1.00984 19.989C0.669169 19.6484 0.499225 19.2354 0.500003 18.75V16.5334L5.16667 12.3917V20.5H2.25ZM6.33334 20.5V15.8334H15.6667V20.5H6.33334ZM16.8333 20.5V10.9334L11.8458 6.50005L15.375 3.37922L20.9167 8.30838C21.1111 8.48338 21.2569 8.68288 21.3542 8.90688C21.4514 9.13088 21.5 9.36888 21.5 9.62088V18.75C21.5 19.2362 21.3297 19.6495 20.989 19.9902C20.6483 20.3309 20.2353 20.5008 19.75 20.5H16.8333ZM0.500003 14.9584V9.62088C0.500003 9.3681 0.548614 9.12505 0.645836 8.89172C0.743058 8.65838 0.888892 8.46394 1.08334 8.30838L9.83334 0.550049C9.98889 0.394493 10.1689 0.282882 10.3735 0.215215C10.5781 0.147549 10.7869 0.113327 11 0.112549C11.2139 0.112549 11.4227 0.146771 11.6265 0.215215C11.8303 0.28366 12.0103 0.395271 12.1667 0.550049L14.5 2.62088L0.500003 14.9584Z" fill="#F3F0F0"/>
</svg>
