<svg width="35" height="33" viewBox="0 0 35 33" fill="none" xmlns="http://www.w3.org/2000/svg">
<path opacity="0.5" d="M16.5001 32.8333C12.1682 32.8333 8.01376 31.1125 4.95067 28.0494C1.88758 24.9863 0.166748 20.8318 0.166748 16.5C0.166748 12.1681 1.88758 8.01364 4.95067 4.95055C8.01376 1.88745 12.1682 0.166626 16.5001 0.166626V32.8333Z" fill="#2F2E41"/>
<path fill-rule="evenodd" clip-rule="evenodd" d="M25.6263 9.29291C25.3396 9.58002 25.1785 9.96921 25.1785 10.375C25.1785 10.7808 25.3396 11.17 25.6263 11.4571L29.138 14.9687H12.4167C12.0106 14.9687 11.6212 15.1301 11.334 15.4172C11.0468 15.7044 10.8855 16.0939 10.8855 16.5C10.8855 16.9061 11.0468 17.2956 11.334 17.5828C11.6212 17.8699 12.0106 18.0312 12.4167 18.0312H29.138L25.6263 21.5429C25.4759 21.6831 25.3552 21.8521 25.2715 22.04C25.1878 22.2278 25.1428 22.4306 25.1392 22.6362C25.1356 22.8418 25.1734 23.046 25.2504 23.2367C25.3274 23.4273 25.4421 23.6005 25.5875 23.7459C25.7329 23.8914 25.9061 24.006 26.0967 24.083C26.2874 24.16 26.4916 24.1978 26.6972 24.1942C26.9028 24.1906 27.1056 24.1456 27.2934 24.0619C27.4813 23.9782 27.6503 23.8575 27.7905 23.7071L33.9155 17.5821C34.2023 17.295 34.3633 16.9058 34.3633 16.5C34.3633 16.0942 34.2023 15.705 33.9155 15.4179L27.7905 9.29291C27.5034 9.00616 27.1142 8.84509 26.7084 8.84509C26.3026 8.84509 25.9134 9.00616 25.6263 9.29291Z" fill="#2F2E41"/>
</svg>
